<svg width="98" height="39" viewBox="0 0 98 39" fill="none" xmlns="http://www.w3.org/2000/svg">
<mask id="mask0_1_479" style="mask-type:luminance" maskUnits="userSpaceOnUse" x="0" y="0" width="98" height="39">
<path d="M97.5803 0.398926H0V38.1376H97.5803V0.398926Z" fill="white"/>
</mask>
<g mask="url(#mask0_1_479)">
<path fill-rule="evenodd" clip-rule="evenodd" d="M60.2646 30.124C54.6195 33.811 46.4374 35.779 39.3926 35.779C29.5148 35.779 20.6222 32.541 13.8946 27.155C13.3661 26.732 13.8397 26.155 14.4739 26.485C21.7343 30.228 30.7115 32.481 39.9846 32.481C46.2386 32.481 53.1184 31.3339 59.4443 28.9539C60.3999 28.5939 61.1991 29.509 60.2646 30.124Z" fill="#C0C0C0"/>
<path fill-rule="evenodd" clip-rule="evenodd" d="M62.6115 27.7442C61.8927 26.9272 57.8418 27.3581 56.0235 27.5491C55.4696 27.6091 55.385 27.1822 55.884 26.8742C59.1103 24.8622 64.4044 25.4431 65.0218 26.1171C65.6391 26.7961 64.8611 31.4992 61.8292 33.7442C61.3641 34.0892 60.9201 33.9051 61.1273 33.4481C61.8081 31.9411 63.3346 28.5652 62.6115 27.7442Z" fill="#C0C0C0"/>
<path fill-rule="evenodd" clip-rule="evenodd" d="M56.1506 12.6671V10.7101C56.1506 10.4141 56.4043 10.2161 56.7088 10.2161H66.5909C66.908 10.2161 67.1617 10.4181 67.1617 10.7101V12.386C67.1575 12.667 66.8911 13.0341 66.4175 13.6151L61.2967 20.095C63.1996 20.053 65.2081 20.3051 66.9334 21.1671C67.3224 21.3611 67.4281 21.6461 67.4577 21.9271V24.0151C67.4577 24.3001 67.1025 24.6331 66.7304 24.4611C63.6901 23.0481 59.6518 22.8941 56.2902 24.4761C55.9477 24.6411 55.5882 24.3111 55.5882 24.0261V22.0441C55.5882 21.7251 55.5925 21.1821 55.9519 20.6981L61.8845 13.1581H56.7215C56.4043 13.1581 56.1506 12.9591 56.1506 12.6671Z" fill="black"/>
<path fill-rule="evenodd" clip-rule="evenodd" d="M20.1024 24.873H17.096C16.8084 24.854 16.5801 24.663 16.5589 24.42V10.7441C16.5589 10.4711 16.8169 10.2531 17.1382 10.2531H19.9418C20.2335 10.2651 20.4661 10.4631 20.4872 10.7101V12.498H20.5422C21.2737 10.77 22.648 9.96509 24.5001 9.96509C26.3818 9.96509 27.5573 10.77 28.403 12.498C29.1303 10.77 30.7837 9.96509 32.5554 9.96509C33.8155 9.96509 35.194 10.4261 36.0355 11.4601C36.9869 12.6111 36.7924 14.2821 36.7924 15.7471L36.7882 24.3781C36.7882 24.6521 36.5303 24.873 36.2089 24.873H33.2066C32.9064 24.854 32.6654 24.6411 32.6654 24.3781V17.1301C32.6654 16.5531 32.7246 15.1141 32.5808 14.5671C32.3567 13.6491 31.6844 13.3901 30.8133 13.3901C30.086 13.3901 29.3248 13.821 29.0162 14.511C28.7075 15.2 28.7371 16.3551 28.7371 17.1301V24.3781C28.7371 24.6521 28.4791 24.873 28.1578 24.873H25.1555C24.8511 24.854 24.6143 24.6411 24.6143 24.3781L24.61 17.1301C24.61 15.6051 24.8934 13.36 22.758 13.36C20.5972 13.36 20.6817 15.5491 20.6817 17.1301V24.3781C20.6817 24.6521 20.4238 24.873 20.1024 24.873Z" fill="black"/>
<path fill-rule="evenodd" clip-rule="evenodd" d="M75.6694 9.96509C80.1305 9.96509 82.545 13.3601 82.545 17.6771C82.545 21.8491 79.8767 25.1581 75.6694 25.1581C71.2886 25.1581 68.9037 21.7621 68.9037 17.5311C68.9037 13.2741 71.3182 9.96509 75.6694 9.96509ZM75.6947 12.7571C73.479 12.7571 73.3395 15.433 73.3395 17.1C73.3395 18.772 73.3099 22.3401 75.6694 22.3401C77.9993 22.3401 78.1092 19.461 78.1092 17.707C78.1092 16.553 78.0543 15.1741 77.661 14.0801C77.3227 13.1281 76.6504 12.7571 75.6947 12.7571Z" fill="black"/>
<path fill-rule="evenodd" clip-rule="evenodd" d="M88.33 24.873H85.336C85.036 24.854 84.795 24.6411 84.795 24.3781L84.79 10.699C84.816 10.448 85.065 10.2531 85.37 10.2531H88.156C88.418 10.2651 88.634 10.422 88.693 10.636V12.7271H88.748C89.59 10.8571 90.77 9.96509 92.846 9.96509C94.195 9.96509 95.51 10.396 96.355 11.576C97.142 12.671 97.142 14.511 97.142 15.834V24.4421C97.108 24.6821 96.859 24.873 96.563 24.873H93.548C93.273 24.854 93.044 24.6741 93.015 24.4421V17.014C93.015 15.519 93.209 13.3301 91.133 13.3301C90.402 13.3301 89.729 13.7651 89.395 14.4241C88.972 15.2601 88.917 16.092 88.917 17.014V24.3781C88.913 24.6521 88.651 24.873 88.33 24.873Z" fill="black"/>
<path fill-rule="evenodd" clip-rule="evenodd" d="M48.2729 18.341C48.2729 19.379 48.3025 20.245 47.7105 21.167C47.2327 21.916 46.4716 22.377 45.6301 22.377C44.4757 22.377 43.7991 21.598 43.7991 20.447C43.7991 18.176 46.0952 17.764 48.2729 17.764V18.341ZM51.3048 24.836C51.106 24.993 50.8185 25.004 50.5944 24.899C49.5964 24.165 49.4146 23.824 48.8691 23.123C47.22 24.614 46.0487 25.06 43.9133 25.06C41.3804 25.06 39.4142 23.677 39.4142 20.908C39.4142 18.746 40.7335 17.273 42.6194 16.553C44.2516 15.916 46.5308 15.804 48.2729 15.627V15.283C48.2729 14.649 48.3279 13.9 47.905 13.353C47.5414 12.862 46.8394 12.659 46.2178 12.659C45.0719 12.659 44.0528 13.18 43.8034 14.26C43.7526 14.499 43.5539 14.735 43.279 14.747L40.3656 14.469C40.1203 14.421 39.8455 14.245 39.9173 13.911C40.5855 10.778 43.7822 9.83301 46.6407 9.83301C48.1038 9.83301 50.0151 10.178 51.1694 11.16C52.6325 12.371 52.493 13.986 52.493 15.744V19.896C52.493 21.144 53.0765 21.691 53.6262 22.366C53.8165 22.606 53.8588 22.894 53.6135 23.074C53.0004 23.528 51.9094 24.371 51.309 24.843L51.3048 24.836Z" fill="black"/>
<path fill-rule="evenodd" clip-rule="evenodd" d="M8.8588 18.341C8.8588 19.379 8.8883 20.245 8.2964 21.167C7.8185 21.916 7.0616 22.377 6.2159 22.377C5.0615 22.377 4.3892 21.598 4.3892 20.447C4.3892 18.176 6.6853 17.764 8.8588 17.764V18.341ZM11.8906 24.836C11.6919 24.993 11.4043 25.004 11.1802 24.899C10.1823 24.165 10.0047 23.824 9.455 23.123C7.8058 24.614 6.6388 25.06 4.4991 25.06C1.9705 25.06 0 23.677 0 20.908C0 18.746 1.3235 17.273 3.2052 16.553C4.8374 15.916 7.1166 15.804 8.8588 15.627V15.283C8.8588 14.649 8.9137 13.9 8.4951 13.353C8.1272 12.862 7.4253 12.659 6.8079 12.659C5.662 12.659 4.6387 13.18 4.3892 14.26C4.3385 14.499 4.1397 14.735 3.8691 14.747L0.951401 14.469C0.706201 14.421 0.435501 14.245 0.503201 13.911C1.1755 10.778 4.3681 9.83301 7.2265 9.83301C8.6896 9.83301 10.6009 10.178 11.7553 11.16C13.2184 12.371 13.0788 13.986 13.0788 15.744V19.896C13.0788 21.144 13.6624 21.691 14.2121 22.366C14.4066 22.606 14.4489 22.894 14.2036 23.074C13.5905 23.528 12.4995 24.371 11.8991 24.843L11.8906 24.836Z" fill="black"/>
</g>
</svg>
