<svg width="100" height="39" viewBox="0 0 100 39" fill="none" xmlns="http://www.w3.org/2000/svg">
<mask id="mask0_1_491" style="mask-type:luminance" maskUnits="userSpaceOnUse" x="0" y="0" width="100" height="39">
<path d="M99.9345 0.398926H0.580002V38.1376H99.9345V0.398926Z" fill="white"/>
</mask>
<g mask="url(#mask0_1_491)">
<path fill-rule="evenodd" clip-rule="evenodd" d="M99.308 24.428C95.176 30.637 88.632 28.836 86.667 27.425C85.83 27.928 84.364 29.031 82.408 28.903C78.243 28.632 76.751 23.357 76.751 23.357C76.781 23.378 75.511 23.746 74.824 23.739C74.815 25.286 73.306 28.982 69.234 28.934C64.665 28.882 63.736 22.848 63.736 22.848C63.736 22.848 63.281 23.408 61.552 23.965C61.639 22.777 61.575 28.754 56.099 28.841C51.769 28.911 50.6 22.755 50.6 22.755C50.6 22.755 49.849 23.446 48.393 23.686C48.486 22.478 48.336 28.862 42.858 28.841C39.157 28.828 37.892 25.049 37.99 24.525C38.116 23.857 36.739 28.935 33.144 28.856C31.66 28.818 30.554 27.865 29.86 26.596C28.93 27.538 27.581 28.856 26.068 28.856C23.351 28.856 22.154 26.842 22.356 21.091C22.374 20.408 22.318 20.14 21.553 20.038C21.094 19.97 20.623 19.842 20.126 19.774C19.966 20.246 18.613 28.703 13.961 28.863C12.401 28.917 11.547 27.719 10.847 26.83C9.772 28.089 8.354 28.903 6.334 28.903C2.912 28.903 0.580002 26.452 0.580002 23.427C0.580002 20.402 2.912 17.951 6.334 17.951C6.939 17.951 7.109 18.028 7.662 18.171C6.525 8.99701 9.209 7.56402 11.558 7.56402C13.813 7.56402 17.664 12.202 12.245 23.966C13.448 27.475 16.042 27.276 17.289 20.053C17.542 18.585 16.864 16.603 17.919 16.327C19.848 15.821 20.053 17.338 20.957 17.59C21.913 17.857 22.471 17.831 23.389 18.001C24.958 18.273 25.57 19.02 25.379 20.683C25.15 22.788 24.748 25.851 25.972 26.225C26.855 26.496 28.467 24.873 28.75 23.986C29.032 23.098 29.091 22.794 29.117 22.143C29.155 20.751 29.203 19.731 29.471 18.678C29.585 18.271 29.716 18.001 30.236 17.983C30.664 17.973 31.446 17.859 31.79 18.097C32.249 18.402 32.192 18.713 32.139 19.529C31.605 31.168 35.714 25.358 36.939 20.705C36.503 15.445 36.802 7.66002 40.522 7.53002C42.456 7.46202 43.312 8.83497 43.406 9.85997C43.672 12.756 42.181 17.552 40.221 20.778C39.101 27.359 45.119 28.66 46.082 23.407C44.507 22.744 42.805 20.058 44.19 18.749C44.967 18.015 48.201 19.07 48.254 21.371C49.841 20.995 50.053 20.201 50.075 20.333C49.639 15.072 50.043 7.66002 53.763 7.53002C55.697 7.46202 56.552 8.83497 56.646 9.85997C56.912 12.756 55.422 17.552 53.462 20.778C52.342 27.359 58.36 28.66 59.322 23.407C58.156 23.208 55.695 20.351 57.115 18.749C57.874 17.893 61.097 19.673 61.457 21.447C62.981 21.065 63.188 20.296 63.21 20.426C62.774 15.165 63.179 7.75298 66.898 7.62298C68.833 7.55498 69.688 8.92797 69.782 9.95397C70.048 12.849 68.557 17.645 66.597 20.871C65.477 27.452 71.495 28.754 72.458 23.5C70.856 23.264 68.579 20.248 70.411 18.705C71.143 18.088 73.941 19.689 74.596 21.514C75.506 21.483 76.072 21.205 76.193 21.177C74.741 15.001 75.822 7.59202 79.824 7.53002C81.986 7.49602 84.101 8.56597 83.173 14.441C82.287 20.047 79.102 22.4 79.11 22.436C79.295 23.107 80.929 28.727 85.044 25.762C84.831 25.334 84.618 24.898 84.498 24.369C83.816 21.287 85.156 17.806 88.797 17.244C90.883 16.921 92.848 17.821 93.159 19.851C93.67 23.171 90.287 25.576 89.001 26.098C88.424 25.808 94.224 29.104 97.666 22.498C97.865 22.121 98.106 22.153 98.418 22.347C98.638 22.485 99.892 23.537 99.308 24.428ZM8.823 22.611C8.648 22.147 8.289 21.125 8.162 20.682C7.462 20.142 6.962 20.054 6.064 20.054C4.067 20.054 2.892 21.69 2.892 23.455C2.892 25.219 4.17201 26.855 6.16901 26.855C7.89901 26.855 9.216 25.812 9.618 24.336C9.337 23.761 9.058 23.232 8.823 22.611ZM11.509 9.99199C10.106 9.99199 9.63001 12.958 9.72301 15.488C9.80401 17.725 10.51 19.695 10.875 20.577C10.968 20.688 10.951 20.616 11.034 20.733C13.47 16.003 12.46 9.99199 11.509 9.99199ZM40.722 10.085C38.909 9.90101 38.921 16.595 39.146 18.097C40.088 16.762 41.724 10.445 40.722 10.085ZM53.963 10.085C52.15 9.90101 52.161 16.595 52.387 18.097C53.328 16.762 54.964 10.445 53.963 10.085ZM67.098 10.178C65.285 9.99397 65.297 16.688 65.522 18.19C66.464 16.855 68.1 10.538 67.098 10.178ZM80.024 9.69298C77.199 10.196 77.856 18.544 78.286 20.008C81.613 15.957 81.682 9.54098 80.024 9.69298ZM90.611 20.125C90.467 19.593 89.749 19.309 89.254 19.379C87.835 19.551 86.459 21.116 86.992 23.5C87.11 24.031 87.407 24.52 87.402 24.503C90.577 22.616 90.847 21.128 90.611 20.125ZM30.792 16.14C30.386 16.141 29.99 16.034 29.653 15.834C29.316 15.635 29.053 15.351 28.898 15.019C28.743 14.687 28.702 14.322 28.781 13.97C28.86 13.617 29.055 13.293 29.342 13.039C29.629 12.785 29.994 12.612 30.391 12.542C30.789 12.472 31.201 12.508 31.576 12.646C31.95 12.783 32.27 13.016 32.496 13.315C32.721 13.613 32.841 13.965 32.841 14.324C32.841 14.562 32.788 14.799 32.685 15.019C32.582 15.239 32.431 15.44 32.241 15.608C32.051 15.777 31.825 15.911 31.576 16.002C31.327 16.093 31.061 16.14 30.792 16.14Z" fill="#0D0C22"/>
</g>
</svg>
