<svg width="338" height="278" viewBox="0 0 338 278" fill="none" xmlns="http://www.w3.org/2000/svg">
<mask id="mask0_1_368" style="mask-type:luminance" maskUnits="userSpaceOnUse" x="160" y="250" width="23" height="22">
<path d="M182.03 250.254H160.746V271.538H182.03V250.254Z" fill="white"/>
</mask>
<g mask="url(#mask0_1_368)">
<path d="M171.387 253.526L181.792 250.46L178.756 260.896L181.792 271.302L171.387 268.266L160.951 271.302L164.017 260.896L160.951 250.46L171.387 253.526Z" fill="black" stroke="white" stroke-miterlimit="10"/>
</g>
<mask id="mask1_1_368" style="mask-type:luminance" maskUnits="userSpaceOnUse" x="18" y="181" width="61" height="61">
<path d="M78.779 211.342L48.8457 181.408L18.9124 211.342L48.8457 241.275L78.779 211.342Z" fill="white"/>
</mask>
<g mask="url(#mask1_1_368)">
<path d="M59.21 200.977L78.157 211.3L59.21 221.706L48.8457 240.611L38.481 221.706L19.5343 211.3L38.481 200.977L48.8457 181.989L59.21 200.977Z" fill="black" stroke="white" stroke-miterlimit="10"/>
</g>
<path d="M323.669 227.26C322.559 229.273 320.482 230.747 317.446 231.668C314.407 232.59 310.451 232.941 305.671 232.735C296.112 232.323 283.369 229.686 268.318 225.08C238.225 215.869 199.015 198.815 157.826 176.096C116.638 153.377 81.297 129.309 57.453 108.768C45.5284 98.496 36.5004 89.123 31.0525 81.258C28.328 77.324 26.5154 73.791 25.6738 70.729C24.8329 67.67 24.9722 65.126 26.0824 63.113C27.1926 61.101 29.2698 59.626 32.3063 58.705C35.3451 57.784 39.3004 57.432 44.0808 57.638C53.64 58.051 66.383 60.687 81.434 65.293C111.526 74.504 150.737 91.558 191.925 114.277C233.114 136.996 268.455 161.065 292.299 181.605C304.223 191.878 313.251 201.25 318.699 209.116C321.424 213.049 323.236 216.582 324.078 219.644C324.919 222.703 324.78 225.247 323.669 227.26Z" stroke="black"/>
<path d="M311.492 249.336C310.381 251.348 308.304 252.823 305.268 253.744C302.229 254.665 298.274 255.017 293.493 254.811C283.935 254.398 271.191 251.762 256.14 247.156C226.048 237.945 186.837 220.891 145.649 198.172C104.46 175.453 69.119 151.384 45.2755 130.844C33.3506 120.571 24.3226 111.199 18.8748 103.333C16.1503 99.3998 14.3377 95.8668 13.4961 92.8048C12.6551 89.7448 12.7944 87.2018 13.9047 85.1888C15.0149 83.1758 17.0921 81.7018 20.1285 80.7808C23.1674 79.8588 27.1226 79.5078 31.9031 79.7138C41.4618 80.1258 54.206 82.7628 69.256 87.3688C99.349 96.5798 138.559 113.634 179.748 136.353C220.936 159.072 256.278 183.14 280.121 203.68C292.046 213.953 301.074 223.326 306.522 231.191C309.246 235.125 311.059 238.658 311.9 241.72C312.741 244.779 312.602 247.323 311.492 249.336Z" stroke="black"/>
<path d="M299.316 271.411C298.206 273.424 296.128 274.899 293.092 275.819C290.053 276.741 286.098 277.092 281.317 276.886C271.759 276.474 259.015 273.837 243.965 269.231C213.872 260.02 174.661 242.966 133.473 220.247C92.285 197.528 56.943 173.46 33.0996 152.92C21.1748 142.647 12.1468 133.274 6.69889 125.409C3.97439 121.475 2.1618 117.942 1.3202 114.88C0.479295 111.821 0.618595 109.277 1.7288 107.264C2.839 105.252 4.9162 103.777 7.9527 102.856C10.9915 101.935 14.9468 101.583 19.7272 101.789C29.286 102.202 42.0297 104.838 57.08 109.445C87.173 118.655 126.384 135.709 167.572 158.428C208.76 181.147 244.102 205.216 267.945 225.756C279.87 236.029 288.898 245.401 294.346 253.267C297.07 257.2 298.883 260.733 299.724 263.795C300.565 266.855 300.426 269.398 299.316 271.411Z" stroke="black"/>
<path d="M63.119 65.1798C68.4852 65.1798 72.8354 61.0368 72.8354 55.9261C72.8354 50.8154 68.4852 46.6724 63.119 46.6724C57.7528 46.6724 53.4026 50.8154 53.4026 55.9261C53.4026 61.0368 57.7528 65.1798 63.119 65.1798Z" fill="#B9FF66"/>
<path d="M237.089 260.433C240.411 260.433 243.104 257.74 243.104 254.418C243.104 251.096 240.411 248.403 237.089 248.403C233.767 248.403 231.074 251.096 231.074 254.418C231.074 257.74 233.767 260.433 237.089 260.433Z" fill="#B9FF66"/>
<path d="M33.0445 45.7466C40.7106 45.7466 46.9251 39.532 46.9251 31.8659C46.9251 24.1999 40.7106 17.9854 33.0445 17.9854C25.3785 17.9854 19.1639 24.1999 19.1639 31.8659C19.1639 39.532 25.3785 45.7466 33.0445 45.7466Z" fill="black"/>
<path d="M168.179 223.899C164.384 225.196 160.048 222.626 158.539 218.169L135.064 149.39L148.782 144.698L172.28 213.571C173.788 217.981 171.95 222.602 168.179 223.899Z" fill="black"/>
<path d="M166.129 224.747C165.021 224.747 163.89 224.488 162.806 223.946C160.614 222.861 158.87 220.833 158.021 218.334L134.546 149.555C134.452 149.296 134.594 148.989 134.876 148.895L148.594 144.203C148.735 144.156 148.877 144.156 148.994 144.226C149.112 144.297 149.207 144.391 149.254 144.533L172.752 213.406C174.331 218.075 172.351 223.003 168.321 224.394C167.638 224.63 166.883 224.747 166.129 224.747ZM135.725 149.72L159.035 218.004C159.789 220.244 161.345 222.083 163.277 223.026C164.833 223.781 166.506 223.922 168.015 223.403C171.503 222.201 173.2 217.862 171.786 213.736L148.452 145.358L135.725 149.72Z" fill="black"/>
<path d="M146.353 85.327L101.973 116.993L84.696 134.937L77.909 146.938L77.885 147.033C76.542 149.107 77.319 153.894 79.841 158.775C82.316 163.585 85.804 166.933 88.255 167.122L88.185 167.169L101.218 168.583L125.613 164.693L177.394 146.16L241.761 157.195L242.209 157.219C226.041 154.2 204.216 132.579 188.354 101.997C172.515 71.439 167.471 41.235 174.424 26.333H174.401L146.707 84.573L146.353 85.327Z" fill="#B9FF66"/>
<path d="M252.908 155.887C268.816 147.622 265.74 110.155 246.037 72.2021C226.335 34.2481 197.467 10.1801 181.56 18.4451C165.652 26.7091 168.728 64.1771 188.43 102.13C208.133 140.084 237 164.152 252.908 155.887Z" fill="white"/>
<path d="M245.912 158.044C238.983 158.044 230.639 154.177 221.659 146.656C209.427 136.422 197.43 120.648 187.885 102.21C173.437 74.2929 167.474 45.6679 172.706 29.2809C174.45 23.8109 177.373 19.9909 181.356 17.9399C189.275 13.8839 200.424 17.3269 212.774 27.6539C225.006 37.8869 237.003 53.6609 246.548 72.0999C261.02 100.017 266.983 128.641 261.727 145.029C259.983 150.499 257.06 154.319 253.077 156.37C250.932 157.502 248.528 158.044 245.912 158.044ZM188.568 17.3269C186.141 17.3269 183.878 17.8219 181.851 18.8829C178.104 20.7929 175.369 24.4239 173.72 29.6349C168.558 45.7859 174.497 74.1039 188.827 101.785C208.343 139.44 236.956 163.538 252.629 155.498C256.377 153.588 259.111 149.957 260.761 144.746C265.922 128.594 259.983 100.276 245.653 72.5949C228.659 39.8209 204.807 17.3269 188.568 17.3269Z" fill="black"/>
<path d="M245.91 158.043C238.981 158.043 230.637 154.177 221.657 146.655C209.425 136.422 197.428 120.648 187.883 102.209C173.435 74.292 167.472 45.668 172.704 29.28C174.448 23.81 177.371 19.99 181.354 17.939C186.657 15.204 193.586 15.888 201.388 19.896C208.859 23.74 216.944 30.554 224.816 39.584C225.004 39.797 224.981 40.127 224.769 40.315C224.556 40.504 224.226 40.48 224.038 40.268C208.058 21.924 191.89 13.719 181.849 18.882C178.102 20.792 175.368 24.423 173.718 29.634C168.556 45.786 174.495 74.103 188.826 101.785C205.795 134.536 229.671 157.053 245.886 157.053C248.314 157.053 250.577 156.558 252.604 155.497C256.351 153.587 259.085 149.956 260.735 144.745C265.897 128.594 259.957 100.276 245.627 72.594C241.361 64.342 236.553 56.585 231.391 49.535C231.226 49.299 231.274 48.969 231.509 48.804C231.745 48.639 232.075 48.686 232.24 48.921C237.449 56.019 242.257 63.823 246.57 72.123C261.018 100.016 266.981 128.641 261.725 145.028C259.981 150.498 257.058 154.318 253.075 156.369C250.93 157.501 248.526 158.043 245.91 158.043Z" fill="black"/>
<path d="M216.813 107.573C220.499 105.658 219.79 96.9858 215.23 88.2028C210.671 79.4188 203.987 73.8509 200.302 75.7649C196.616 77.6799 197.325 86.3528 201.885 95.1358C206.444 103.919 213.128 109.488 216.813 107.573Z" fill="#B9FF66"/>
<path d="M215.199 108.481C211.145 108.481 205.489 103.247 201.411 95.3482C198.017 88.7932 196.627 82.0502 197.876 78.1592C198.324 76.7922 199.054 75.8252 200.068 75.3062C204.075 73.2552 210.933 78.8432 215.694 88.0152C219.088 94.5702 220.479 101.314 219.23 105.204C218.782 106.572 218.051 107.538 217.038 108.057C216.472 108.34 215.859 108.481 215.199 108.481ZM201.906 75.8962C201.411 75.8962 200.94 75.9902 200.539 76.2022C199.762 76.6032 199.196 77.3582 198.842 78.4662C197.687 82.0972 199.031 88.5582 202.307 94.8772C206.644 103.247 213.172 108.882 216.543 107.137C217.321 106.737 217.886 105.982 218.24 104.874C219.395 101.219 218.028 94.7822 214.775 88.4632C210.957 81.1302 205.489 75.8962 201.906 75.8962Z" fill="#B9FF66"/>
<path d="M242.328 149.248C236.247 149.248 228.941 145.853 221.069 139.275C210.368 130.315 199.857 116.498 191.513 100.37C178.857 75.9418 173.648 50.8779 178.22 36.5189C179.752 31.7089 182.321 28.3609 185.833 26.5449C193.894 22.4189 205.749 27.1818 218.382 39.6078C218.594 39.8198 218.594 40.1258 218.382 40.3388C218.17 40.5508 217.863 40.5508 217.651 40.3388C205.348 28.2428 193.917 23.5268 186.304 27.4648C183.052 29.1388 180.671 32.2749 179.21 36.8249C174.708 50.9249 179.894 75.6828 192.432 99.8979C207.257 128.546 228.116 148.211 242.305 148.211C244.426 148.211 246.382 147.763 248.173 146.867C251.426 145.193 253.806 142.057 255.268 137.506C259.769 123.406 254.584 98.6488 242.045 74.4329C238.251 67.1239 234.008 60.2618 229.436 54.0608C229.271 53.8258 229.318 53.4948 229.554 53.3298C229.789 53.1648 230.119 53.2118 230.284 53.4478C234.904 59.7198 239.17 66.6048 242.988 73.9618C255.645 98.3888 260.854 123.453 256.281 137.813C254.749 142.623 252.18 145.971 248.668 147.786C246.736 148.753 244.615 149.248 242.328 149.248Z" fill="black"/>
<path d="M101.244 169.079C101.22 169.079 101.197 169.079 101.197 169.079L88.163 167.664C88.092 167.664 88.021 167.641 87.951 167.593C85.264 167.169 81.87 163.774 79.395 159.011C76.755 153.988 75.978 149.084 77.415 146.773L77.439 146.703L84.227 134.678C84.25 134.63 84.274 134.607 84.297 134.583L101.574 116.64C101.597 116.616 101.621 116.593 101.644 116.569L145.907 84.9742L173.907 26.0982C173.978 25.9802 174.072 25.8862 174.214 25.8392C174.355 25.7912 174.497 25.7912 174.615 25.8622C174.874 25.9802 174.992 26.2872 174.874 26.5462C167.779 41.7542 173.389 71.9822 188.803 101.738C204.241 131.542 225.76 153.611 242.329 156.653C242.588 156.7 242.777 156.936 242.753 157.219C242.729 157.478 242.494 157.667 242.235 157.69L241.787 157.667C241.763 157.667 241.74 157.667 241.716 157.667L177.466 146.656L125.803 165.141C125.779 165.141 125.732 165.165 125.709 165.165L101.314 169.055C101.291 169.079 101.267 169.079 101.244 169.079ZM88.54 166.674L101.244 168.041L125.52 164.151L177.278 145.642C177.372 145.618 177.443 145.594 177.537 145.618L235.376 155.521C219.75 148.66 201.483 128.406 187.931 102.233C174.473 76.2502 168.463 49.8652 171.763 33.1952L146.826 85.5402C146.779 85.6102 146.732 85.6812 146.662 85.7282L102.328 117.394L85.122 135.243L78.334 147.269C78.334 147.292 78.311 147.316 78.311 147.316C77.085 149.226 77.91 153.941 80.291 158.539C82.624 163.043 85.994 166.438 88.304 166.603C88.399 166.603 88.469 166.627 88.54 166.674Z" fill="black"/>
<path d="M146.424 85.1391L174.4 26.3101H174.424C167.471 41.2121 172.538 71.4161 188.353 101.974C204.215 132.579 226.04 154.201 242.256 157.172L241.808 157.148L177.535 146.137L176.05 145.877C168.579 144.557 158.609 134.843 151.468 120.978C144.138 106.76 142.841 92.5901 146.094 85.8461L146.424 85.1391Z" fill="white"/>
<path d="M242.257 157.69L241.786 157.667C241.762 157.667 241.739 157.667 241.715 157.667L177.442 146.655L175.957 146.396C168.061 145.005 158.045 134.89 150.997 121.238C143.007 105.723 142.607 91.9058 145.624 85.6338L145.977 84.9258L173.954 26.1208C174.024 26.0028 174.119 25.9088 174.26 25.8618C174.402 25.8148 174.543 25.8148 174.661 25.8858C174.92 26.0028 175.038 26.3098 174.92 26.5688C167.826 41.7778 173.435 72.0048 188.849 101.762C204.287 131.565 225.806 153.635 242.375 156.676C242.634 156.723 242.823 156.959 242.799 157.242C242.729 157.478 242.516 157.69 242.257 157.69ZM171.715 33.1948L146.896 85.3738L146.543 86.0818C143.549 92.3068 144.422 106.218 151.917 120.742C158.822 134.135 168.556 144.038 176.146 145.359L177.631 145.618L235.351 155.521C219.725 148.66 201.459 128.406 187.907 102.233C174.449 76.2498 168.439 49.8648 171.715 33.1948Z" fill="black"/>
<path d="M100.536 169.008C100.512 169.008 100.489 169.008 100.489 169.008L88.138 167.688C88.068 167.688 87.997 167.664 87.926 167.617C85.239 167.192 81.845 163.797 79.371 159.034C76.754 153.988 75.977 149.084 77.414 146.773L77.438 146.703L84.226 134.677C84.367 134.418 84.674 134.347 84.933 134.489C85.192 134.63 85.263 134.937 85.121 135.196L78.334 147.268C78.334 147.292 78.31 147.316 78.31 147.316C77.084 149.226 77.909 153.941 80.29 158.539C82.623 163.043 85.994 166.438 88.303 166.603C88.374 166.603 88.468 166.627 88.515 166.674L100.583 167.971C100.866 167.994 101.078 168.253 101.031 168.536C101.007 168.796 100.795 169.008 100.536 169.008Z" fill="black"/>
<path d="M101.36 168.489C97.353 168.206 91.744 162.524 87.666 154.672C83.353 146.349 82.34 137.743 84.979 134.677L77.932 146.938L77.885 147.033C76.542 149.108 77.319 153.894 79.841 158.775C82.316 163.585 85.804 166.933 88.255 167.122L88.185 167.169L101.36 168.489Z" fill="white"/>
<path d="M101.361 169.008C101.337 169.008 101.337 169.008 101.313 169.008C101.219 169.008 101.101 168.984 101.007 168.984L88.138 167.688C88.068 167.688 87.997 167.664 87.926 167.617C85.239 167.192 81.845 163.797 79.371 159.034C76.754 153.988 75.977 149.084 77.414 146.773L77.438 146.703L83.637 135.904C83.872 135.29 84.179 134.748 84.556 134.3C84.721 134.088 85.027 134.064 85.239 134.206C85.451 134.371 85.522 134.654 85.381 134.89L84.509 136.375C83.118 140.124 84.485 147.481 88.068 154.366C91.957 161.887 97.26 167.381 101.054 167.876L101.337 167.9C101.62 167.923 101.832 168.183 101.808 168.466C101.832 168.796 101.62 169.008 101.361 169.008ZM88.515 166.674L97.519 167.593C94.054 165.377 90.236 160.803 87.196 154.908C84.249 149.225 82.788 143.331 83.024 139.087L78.334 147.268C78.334 147.292 78.31 147.316 78.31 147.316C77.084 149.225 77.909 153.941 80.29 158.539C82.623 163.043 85.994 166.438 88.303 166.603C88.374 166.603 88.468 166.627 88.515 166.674Z" fill="black"/>
<path d="M124.742 164.787L125.779 164.575C120.17 165.754 111.308 157.265 105.062 145.217C98.675 132.909 97.473 120.624 101.998 116.993L101.409 117.583L85.028 134.606C82.341 137.624 83.331 146.278 87.668 154.648C91.84 162.712 97.756 168.465 101.786 168.442L124.742 164.787Z" fill="black"/>
<path d="M101.762 168.984C97.473 168.984 91.51 163.207 87.196 154.908C82.813 146.419 81.705 137.554 84.627 134.276L100.702 117.583C100.984 117.205 101.314 116.875 101.668 116.592C101.88 116.427 102.186 116.451 102.375 116.639C102.564 116.852 102.564 117.158 102.375 117.347L101.456 118.314C98.18 122.699 99.806 133.923 105.533 144.981C111.708 156.912 120.335 165.094 125.614 164.103L125.685 164.08C125.968 164.033 126.227 164.198 126.298 164.481C126.345 164.763 126.18 165.023 125.897 165.094C125.873 165.094 125.85 165.094 125.826 165.117L124.86 165.306H124.836L101.88 168.96C101.833 168.96 101.786 168.984 101.762 168.984ZM99.335 120.506L85.405 134.984C82.813 137.907 83.991 146.443 88.139 154.436C92.193 162.264 97.92 167.923 101.762 167.947L122.032 164.716C116.564 162.783 109.823 155.497 104.614 145.476C99.665 135.927 97.755 126.212 99.335 120.506Z" fill="black"/>
<path d="M200.304 75.7539C196.604 77.6399 197.146 86.3879 201.86 95.1119C209.755 109.707 216.048 107.986 216.779 107.727C216.803 107.727 216.803 107.75 216.779 107.75L203.227 118.667C199.244 113.079 195.449 106.854 191.961 100.134C188.637 93.6969 185.833 87.2839 183.617 81.0589L200.304 75.7539Z" fill="black"/>
<path d="M203.227 119.186C203.203 119.186 203.18 119.186 203.156 119.186C203.015 119.162 202.897 119.091 202.803 118.974C198.725 113.244 194.931 106.972 191.513 100.394C188.237 94.074 185.409 87.637 183.146 81.271C183.099 81.13 183.099 80.988 183.17 80.87C183.24 80.753 183.335 80.658 183.476 80.611L200.163 75.306C200.422 75.235 200.705 75.353 200.799 75.612C200.894 75.872 200.799 76.155 200.564 76.273C199.762 76.673 199.173 77.475 198.82 78.654C197.665 82.356 199.079 88.911 202.355 94.923C210.062 109.165 216.002 107.538 216.638 107.302C216.874 107.208 217.156 107.326 217.274 107.538C217.392 107.75 217.345 108.057 217.156 108.222L203.557 119.068C203.463 119.139 203.345 119.186 203.227 119.186ZM184.301 81.389C186.54 87.543 189.274 93.768 192.432 99.898C195.732 106.265 199.409 112.324 203.345 117.912L215.106 108.434C212.419 108.316 207.352 106.312 201.412 95.348C197.971 89.005 196.557 82.309 197.806 78.277C197.971 77.758 198.16 77.31 198.395 76.886L184.301 81.389Z" fill="black"/>
<path d="M270.031 42.1172C280.806 36.4572 284.973 23.1672 279.339 12.4342C273.705 1.70119 260.403 -2.41081 249.629 3.24919C238.854 8.91019 234.686 22.1992 240.32 32.9322C245.954 43.6652 259.256 47.7782 270.031 42.1172Z" fill="black"/>
<path d="M249.793 17.8212C250.83 16.4062 252.362 15.5342 254.107 15.3452C255.426 15.2042 256.652 15.4872 257.807 16.1942C258.396 16.5482 258.915 16.9962 259.41 17.5382C259.763 16.9022 260.187 16.3362 260.682 15.8642C261.649 14.9212 262.804 14.3792 264.1 14.2372C265.844 14.0482 267.541 14.5672 268.861 15.7232C270.157 16.8542 270.982 18.5052 271.194 20.3682C271.406 22.2772 270.888 24.1172 269.568 26.1442C268.389 27.9602 266.598 29.8462 264.524 32.0632C263.817 32.8172 263.016 33.6662 262.191 34.5622C261.979 34.7982 261.672 34.9632 261.342 34.9862C261.012 35.0332 260.706 34.9392 260.423 34.7512C259.41 34.0432 258.443 33.3832 257.595 32.8172C255.096 31.1192 252.928 29.6582 251.373 28.1492C249.628 26.4742 248.733 24.7772 248.521 22.8672C248.332 21.0042 248.78 19.2122 249.793 17.8212Z" fill="white"/>
<path d="M331.156 43.318C339.044 35.427 339.044 22.633 331.156 14.741C323.268 6.85 310.479 6.85 302.591 14.741C294.703 22.633 294.703 35.427 302.591 43.318C310.479 51.209 323.268 51.209 331.156 43.318Z" fill="#B9FF66"/>
<path d="M316.87 49.7469C305.462 49.7469 296.152 40.4569 296.152 29.0219C296.152 17.6089 305.439 8.2959 316.87 8.2959C328.301 8.2959 337.587 17.5859 337.587 29.0219C337.587 40.4339 328.301 49.7469 316.87 49.7469ZM316.87 9.33292C306.028 9.33292 297.189 18.1519 297.189 29.0219C297.189 39.8679 306.004 48.7099 316.87 48.7099C327.712 48.7099 336.55 39.8909 336.55 29.0219C336.55 18.1749 327.735 9.33292 316.87 9.33292Z" fill="#B9FF66"/>
<path d="M322.339 31.026C321.208 31.026 320.218 31.568 319.558 32.417L312.746 29.752C312.746 29.658 312.77 29.587 312.77 29.493C312.77 29.328 312.746 29.163 312.723 28.998L319.699 25.768C320.336 26.499 321.278 26.97 322.339 26.994C324.272 26.994 325.874 25.414 325.874 23.457C325.874 21.5 324.295 19.896 322.339 19.896C320.406 19.896 318.804 21.476 318.804 23.433C318.804 23.598 318.827 23.763 318.851 23.928L311.874 27.159C311.238 26.428 310.295 25.956 309.235 25.933C307.302 25.933 305.699 27.512 305.699 29.469C305.699 31.426 307.278 33.03 309.235 33.03C310.366 33.03 311.356 32.487 312.016 31.639L318.827 34.303C318.827 34.397 318.804 34.468 318.804 34.562C318.804 36.519 320.383 38.123 322.339 38.123C324.272 38.123 325.874 36.543 325.874 34.586C325.851 32.629 324.272 31.049 322.339 31.026Z" fill="black"/>
<path d="M322.606 107.365C331.855 100.942 334.179 88.2768 327.796 79.0768C321.413 69.8768 308.74 67.6258 299.49 74.0478C290.241 80.4708 287.917 93.1358 294.3 102.336C300.683 111.536 313.356 113.787 322.606 107.365Z" fill="black"/>
<path d="M305.96 100.37L302.99 84.2661C302.848 83.4411 303.603 82.7572 304.404 82.9692L321.963 87.9442C322.859 88.2042 323.071 89.3591 322.34 89.9251L307.727 101.054C307.091 101.573 306.125 101.219 305.96 100.37Z" fill="white"/>
<path d="M310.852 173.33C322.275 167.767 327.054 154.051 321.528 142.694C316.001 131.337 302.261 126.64 290.839 132.203C279.416 137.766 274.636 151.482 280.163 162.839C285.69 174.196 299.43 178.893 310.852 173.33Z" fill="#B9FF66"/>
<path d="M300.73 176.199C298.279 176.199 295.78 175.821 293.353 174.996C287.413 173.015 282.605 168.866 279.824 163.254C277.043 157.666 276.619 151.323 278.622 145.381C282.77 133.144 296.11 126.471 308.39 130.55C314.329 132.531 319.137 136.681 321.918 142.292C324.7 147.881 325.124 154.223 323.121 160.165C319.774 169.974 310.558 176.199 300.73 176.199ZM300.965 130.409C291.561 130.409 282.747 136.351 279.565 145.735C277.656 151.417 278.056 157.477 280.72 162.806C283.383 168.158 287.979 172.143 293.659 174.029C305.396 177.92 318.147 171.554 322.107 159.859C324.016 154.176 323.615 148.116 320.952 142.788C318.289 137.435 313.693 133.45 308.013 131.564C305.679 130.763 303.299 130.409 300.965 130.409Z" fill="black"/>
<path d="M312.561 149.06C312.325 154.79 302.638 168.182 300.328 171.318C300.093 171.648 299.598 171.625 299.386 171.271C297.924 168.913 293.093 160.991 290.571 154.578C289.557 152.031 288.921 149.72 288.992 148.093C289.251 141.586 294.743 136.516 301.248 136.776C307.753 137.082 312.82 142.552 312.561 149.06Z" fill="black"/>
<path d="M304.588 152.41C306.696 150.302 306.696 146.883 304.588 144.774C302.48 142.666 299.063 142.666 296.955 144.774C294.847 146.883 294.847 150.302 296.955 152.41C299.063 154.519 302.48 154.519 304.588 152.41Z" fill="#B9FF66"/>
</svg>
