<svg width="103" height="39" viewBox="0 0 103 39" fill="none" xmlns="http://www.w3.org/2000/svg">
<mask id="mask0_1_496" style="mask-type:luminance" maskUnits="userSpaceOnUse" x="0" y="0" width="103" height="39">
<path d="M102.064 0.398926H0.934998V38.1376H102.064V0.398926Z" fill="white"/>
</mask>
<g mask="url(#mask0_1_496)">
<path d="M11.854 10.7031V17.8481H4.45001V10.7031H0.934998V27.7591H4.45001V20.8461H11.854V27.7591H15.369V10.7031H11.854Z" fill="#575C62"/>
<path d="M26.618 22.2449C26.618 22.9289 26.312 23.5849 25.766 24.0679C25.221 24.5509 24.481 24.8229 23.71 24.8229C22.939 24.8229 22.199 24.5509 21.654 24.0679C21.109 23.5849 20.802 22.9289 20.802 22.2449V14.9399H17.468V22.2449C17.468 23.7109 18.125 25.1169 19.295 26.1539C20.464 27.1899 22.05 27.7719 23.704 27.7719C25.358 27.7719 26.944 27.1899 28.114 26.1539C29.283 25.1169 29.94 23.7109 29.94 22.2449V14.9399H26.618V22.2449Z" fill="#575C62"/>
<path d="M51.322 15.6931C51.322 14.1961 52.44 13.7211 53.665 13.7211C54.651 13.7211 55.955 14.3871 56.808 15.1941L58.991 12.9141C57.901 11.6071 55.69 10.7031 53.88 10.7031C50.263 10.7031 47.647 12.5811 47.647 15.6931C47.647 21.4671 55.611 19.6361 55.611 22.8671C55.611 23.8641 54.519 24.7451 53.268 24.7451C51.296 24.7451 50.658 23.8901 49.752 22.9861L47.328 25.2191C48.878 26.9061 50.79 27.7621 53.081 27.7621C56.516 27.7621 59.281 25.8622 59.281 22.8922C59.281 16.4812 51.317 18.4731 51.317 15.6931" fill="#575C62"/>
<path d="M100.588 25.0339C98.618 25.0339 98.058 24.2789 98.058 23.1219V18.0009H101.12V15.4059H98.058V11.9819L94.677 13.327V23.7579C94.677 26.4259 96.754 27.7709 99.603 27.7709C100.05 27.7779 100.496 27.7469 100.936 27.6769L101.761 24.986C101.389 25.008 100.962 25.0309 100.588 25.0309" fill="#575C62"/>
<path d="M39.31 15.0261C37.658 15.0261 36.506 15.4511 35.392 16.4201V10.8062H32.053V21.2111C32.053 25.1071 35.23 27.7751 38.8 27.7751C42.761 27.7751 46.245 25.0591 46.245 21.4021C46.245 17.7911 43.038 15.0281 39.31 15.0281V15.0261ZM39.289 24.7971C38.54 24.7971 37.807 24.6001 37.184 24.2311C36.561 23.8621 36.076 23.3371 35.789 22.7241C35.502 22.1101 35.427 21.4351 35.573 20.7841C35.719 20.1321 36.08 19.5341 36.61 19.0641C37.14 18.5951 37.815 18.2751 38.55 18.1451C39.285 18.0161 40.047 18.0821 40.739 18.3361C41.431 18.5901 42.023 19.0211 42.44 19.5731C42.856 20.1251 43.078 20.7751 43.078 21.4391C43.078 22.3291 42.679 23.1831 41.968 23.8131C41.258 24.4431 40.294 24.7971 39.289 24.7971Z" fill="#575C62"/>
<path d="M75.569 21.246C75.569 17.582 72.092 14.873 68.124 14.873C64.554 14.873 61.376 17.541 61.376 21.436V31.8481H64.716V26.2261C65.828 27.1941 66.982 27.6201 68.632 27.6201C72.361 27.6201 75.567 24.859 75.567 21.246H75.569ZM72.407 21.209C72.407 21.873 72.185 22.5221 71.769 23.0751C71.352 23.6271 70.761 24.057 70.068 24.311C69.376 24.566 68.614 24.6321 67.879 24.5031C67.144 24.3731 66.469 24.053 65.939 23.584C65.409 23.114 65.048 22.5161 64.902 21.8641C64.756 21.2131 64.831 20.5381 65.118 19.9241C65.405 19.3101 65.89 18.7861 66.513 18.4171C67.136 18.0481 67.869 17.8511 68.618 17.8511C69.623 17.8511 70.587 18.2051 71.297 18.8351C72.008 19.4641 72.407 20.318 72.407 21.209Z" fill="#575C62"/>
<path d="M86.324 14.826V11.883C86.762 11.701 87.134 11.4131 87.395 11.0511C87.656 10.6901 87.796 10.27 87.798 9.84105V9.77201C87.796 9.17201 87.526 8.59702 87.048 8.17302C86.569 7.74902 85.921 7.51004 85.244 7.50804H85.166C84.489 7.51004 83.841 7.74902 83.362 8.17302C82.884 8.59702 82.614 9.17201 82.612 9.77201V9.84105C82.614 10.27 82.754 10.6901 83.015 11.0511C83.276 11.4131 83.648 11.701 84.086 11.883V14.826C82.825 14.997 81.637 15.46 80.642 16.169L71.525 9.88206C71.589 9.67506 71.624 9.46104 71.628 9.24504C71.629 8.74004 71.46 8.24603 71.144 7.82603C70.828 7.40603 70.379 7.07801 69.852 6.88401C69.326 6.69001 68.747 6.63904 68.188 6.73704C67.629 6.83504 67.115 7.07804 66.712 7.43504C66.308 7.79104 66.033 8.24607 65.921 8.74107C65.81 9.23607 65.866 9.75002 66.083 10.217C66.301 10.684 66.67 11.0831 67.143 11.3641C67.617 11.6451 68.173 11.7951 68.743 11.7961C69.244 11.7941 69.735 11.676 70.167 11.453L79.132 17.6371C78.324 18.7171 77.903 19.987 77.923 21.282C77.943 22.578 78.403 23.837 79.244 24.897L76.516 27.315C76.297 27.253 76.069 27.22 75.839 27.217C75.37 27.217 74.913 27.34 74.523 27.571C74.134 27.801 73.83 28.129 73.651 28.513C73.472 28.896 73.425 29.318 73.516 29.725C73.608 30.132 73.833 30.506 74.164 30.8C74.495 31.093 74.917 31.2931 75.377 31.3741C75.836 31.4551 76.312 31.414 76.745 31.255C77.178 31.096 77.547 30.827 77.808 30.482C78.068 30.137 78.207 29.731 78.207 29.316C78.204 29.112 78.166 28.91 78.097 28.716L80.795 26.324C81.676 26.92 82.699 27.3311 83.786 27.5231C84.873 27.7161 85.996 27.685 87.067 27.435C88.139 27.184 89.132 26.72 89.971 26.078C90.81 25.435 91.471 24.631 91.906 23.727C92.341 22.823 92.536 21.843 92.478 20.862C92.421 19.881 92.111 18.925 91.572 18.066C91.033 17.207 90.281 16.469 89.371 15.907C88.461 15.346 87.419 14.976 86.324 14.826ZM85.206 24.506C84.467 24.506 83.745 24.312 83.131 23.948C82.517 23.585 82.039 23.0681 81.756 22.4631C81.474 21.8591 81.4 21.1931 81.544 20.5511C81.688 19.9091 82.044 19.32 82.566 18.857C83.088 18.394 83.753 18.079 84.477 17.951C85.202 17.824 85.952 17.8891 86.635 18.1401C87.317 18.3901 87.9 18.814 88.31 19.358C88.721 19.903 88.94 20.5421 88.94 21.1971C88.94 22.0751 88.546 22.916 87.846 23.537C87.146 24.157 86.196 24.506 85.206 24.506Z" fill="#898989"/>
</g>
</svg>
