<svg width="99" height="38" viewBox="0 0 99 38" fill="none" xmlns="http://www.w3.org/2000/svg">
<mask id="mask0_1_507" style="mask-type:luminance" maskUnits="userSpaceOnUse" x="0" y="0" width="99" height="38">
<path d="M98.5803 0.137939H0.1129V37.8766H98.5803V0.137939Z" fill="white"/>
</mask>
<g mask="url(#mask0_1_507)">
<path d="M13.6532 30.066C12.1719 30.297 10.6645 30.366 9.1052 30.55L4.3491 18.204V31.08C2.8677 31.218 1.5163 31.402 0.1129 31.587V8H4.0633L9.469 21.383V8H13.6532V30.066ZM21.8398 16.638C23.4512 16.638 25.9201 16.569 27.4015 16.569V20.254C25.5562 20.254 23.3992 20.254 21.8398 20.323V25.805C24.2828 25.667 26.7258 25.483 29.1946 25.413V28.96L17.6814 29.767V8H29.1946V11.685H21.8398V16.638ZM44.6581 11.686H40.344V28.638C38.9405 28.638 37.5371 28.638 36.1859 28.684V11.686H31.8718V8H44.6583L44.6581 11.686ZM51.4152 16.384H57.1069V20.07H51.4152V28.431H47.3347V8H58.9521V11.685H51.4152V16.384ZM65.709 25.206C68.074 25.252 70.465 25.414 72.778 25.529V29.168C69.062 28.961 65.345 28.754 61.5511 28.684V8H65.709V25.206ZM76.287 29.421C77.612 29.491 79.016 29.56 80.367 29.698V8H76.287V29.421ZM98.586 8L93.31 19.218L98.586 31.587C97.026 31.402 95.467 31.149 93.907 30.919L90.919 24.101L87.878 30.366C86.371 30.135 84.915 30.066 83.408 29.882L88.762 19.079L83.928 8H88.398L91.127 14.196L94.037 8H98.586Z" fill="#575C62"/>
</g>
</svg>
