<svg width="116" height="38" viewBox="0 0 116 38" fill="none" xmlns="http://www.w3.org/2000/svg">
<mask id="mask0_1_512" style="mask-type:luminance" maskUnits="userSpaceOnUse" x="0" y="0" width="116" height="38">
<path d="M115.015 0.137939H0.580002V37.8766H115.015V0.137939Z" fill="white"/>
</mask>
<g mask="url(#mask0_1_512)">
<path d="M40.442 27.479V16.035H40.672L50.071 27.479H53.028V10.674H49.742V22.088H49.512L40.114 10.674H37.156V27.479H40.442ZM62.328 27.738C66.666 27.738 69.328 25.259 69.328 21.108C69.328 16.986 66.666 14.479 62.328 14.479C58.023 14.479 55.329 16.986 55.329 21.108C55.362 25.259 57.991 27.738 62.328 27.738ZM62.328 25.317C60.028 25.317 58.713 23.789 58.713 21.108C58.713 18.456 60.028 16.9 62.328 16.9C64.629 16.9 65.943 18.456 65.943 21.108C65.943 23.789 64.629 25.317 62.328 25.317ZM72.318 11.625V14.824H70.018V17.13H72.318V24.077C72.318 26.556 73.633 27.536 76.985 27.536C77.609 27.536 78.233 27.479 78.726 27.392V25.144C78.332 25.173 78.069 25.201 77.609 25.201C76.229 25.201 75.604 24.654 75.604 23.385V17.13H78.726V14.824H75.604V11.625H72.318ZM80.698 27.479H83.984V14.738H80.698V27.479ZM82.341 12.634C83.426 12.634 84.313 11.855 84.313 10.904C84.313 9.92399 83.426 9.146 82.341 9.146C81.257 9.146 80.369 9.92399 80.369 10.904C80.369 11.855 81.257 12.634 82.341 12.634ZM92.988 27.738C97.326 27.738 99.988 25.259 99.988 21.108C99.988 16.986 97.326 14.479 92.988 14.479C88.683 14.479 85.989 16.986 85.989 21.108C85.989 25.259 88.618 27.738 92.988 27.738ZM92.988 25.317C90.688 25.317 89.374 23.789 89.374 21.108C89.374 18.456 90.688 16.9 92.988 16.9C95.256 16.9 96.603 18.456 96.603 21.108C96.57 23.789 95.256 25.317 92.988 25.317ZM101.927 27.479H105.213V20.071C105.213 18.197 106.462 17.015 108.4 17.015C110.405 17.015 111.325 17.995 111.325 19.926V27.479H114.611V19.235C114.611 16.179 112.837 14.479 109.616 14.479C107.447 14.479 106.002 15.343 105.311 16.785H105.081V14.738H101.894C101.927 14.738 101.927 27.479 101.927 27.479Z" fill="black"/>
<path fill-rule="evenodd" clip-rule="evenodd" d="M5.647 9.59806C6.604 10.2821 6.95 10.228 8.741 10.12L25.611 9.22001C25.977 9.22001 25.672 8.89602 25.55 8.86002L22.741 7.07902C22.212 6.71902 21.48 6.28706 20.116 6.39506L3.79601 7.45603C3.20501 7.51003 3.083 7.78006 3.327 7.97806L5.647 9.59806ZM6.66499 13.071V28.764C6.66499 29.61 7.133 29.916 8.211 29.862L26.75 28.9081C27.829 28.8541 27.951 28.278 27.951 27.594V12.01C27.951 11.326 27.646 10.9481 26.994 11.002L7.621 12.01C6.909 12.064 6.66499 12.387 6.66499 13.071ZM24.959 13.917C25.082 14.385 24.959 14.871 24.43 14.925L23.535 15.087V26.6761C22.762 27.0361 22.049 27.2521 21.439 27.2521C20.482 27.2521 20.238 26.982 19.526 26.191L13.686 18.074V25.9211L15.537 26.281C15.537 26.281 15.537 27.234 14.052 27.234L9.94099 27.45C9.81899 27.234 9.94101 26.712 10.348 26.604L11.427 26.3351V15.969L9.94099 15.8611C9.81899 15.3931 10.124 14.7091 10.959 14.6551L15.375 14.385L21.459 22.591V15.339L19.913 15.177C19.791 14.601 20.279 14.169 20.869 14.115L24.959 13.917ZM2.43201 6.01706L19.424 4.91904C21.5 4.75704 22.049 4.86503 23.352 5.71103L28.765 9.07602C29.66 9.65202 29.966 9.81401 29.966 10.444V28.9261C29.966 30.0781 29.497 30.762 27.829 30.87L8.11 31.9311C6.848 31.9851 6.25799 31.8231 5.60699 31.0851L1.59801 26.496C0.886007 25.651 0.580002 25.0211 0.580002 24.2831V7.85203C0.580002 6.89903 1.06901 6.12506 2.43201 6.01706Z" fill="black"/>
</g>
</svg>
