<svg width="330" height="327" viewBox="0 0 330 327" fill="none" xmlns="http://www.w3.org/2000/svg">
<mask id="mask0_1_567" style="mask-type:luminance" maskUnits="userSpaceOnUse" x="0" y="0" width="330" height="327">
<path fill-rule="evenodd" clip-rule="evenodd" d="M45 0C20.1472 0 0 20.15 0 45V257.38C0 280.95 18.131 300.29 41.2035 302.23L66 326.38L90.634 302.38H284.99C309.843 302.38 330 282.24 330 257.38V45C330 20.15 309.853 0 285 0H45Z" fill="#B9FF66"/>
</mask>
<g mask="url(#mask0_1_567)">
<path d="M41.2035 302.23L41.9014 301.51L41.6444 301.26L41.287 301.23L41.2035 302.23ZM66 326.38L65.302 327.1L66 327.78L66.698 327.1L66 326.38ZM90.634 302.38V301.38H90.227L89.936 301.67L90.634 302.38ZM1 45C1 20.7 20.6995 1 45 1V-1C19.5949 -1 -1 19.59 -1 45H1ZM1 257.38V45H-1V257.38H1ZM41.287 301.23C18.728 299.34 1 280.43 1 257.38H-1C-1 281.48 17.5341 301.25 41.1201 303.22L41.287 301.23ZM66.698 325.67L41.9014 301.51L40.5057 302.94L65.302 327.1L66.698 325.67ZM89.936 301.67L65.302 325.67L66.698 327.1L91.331 303.1L89.936 301.67ZM284.99 301.38H90.634V303.38H284.99V301.38ZM329 257.38C329 281.68 309.291 301.38 284.99 301.38V303.38C310.395 303.38 331 282.79 331 257.38H329ZM329 45V257.38H331V45H329ZM285 1C309.301 1 329 20.7 329 45H331C331 19.59 310.405 -1 285 -1V1ZM45 1H285V-1H45V1Z" fill="#B9FF66"/>
</g>
</svg>
