<svg width="87" height="38" viewBox="0 0 87 38" fill="none" xmlns="http://www.w3.org/2000/svg">
<mask id="mask0_1_518" style="mask-type:luminance" maskUnits="userSpaceOnUse" x="0" y="0" width="87" height="38">
<path d="M86.9502 0.137939H0.0150146V37.8766H86.9502V0.137939Z" fill="white"/>
</mask>
<g mask="url(#mask0_1_518)">
<path fill-rule="evenodd" clip-rule="evenodd" d="M70.723 16.332C71.055 16.839 71.164 17.417 71.2 18.066L71.247 18.931V24.983L71.295 25.849C71.391 27.264 72.568 28.31 74.177 28.399L75.149 28.442V18.931L75.197 18.066C75.237 17.424 75.345 16.836 75.682 16.324C76.026 15.8 76.519 15.365 77.112 15.063C77.705 14.761 78.377 14.602 79.062 14.604C79.746 14.605 80.418 14.765 81.009 15.069C81.601 15.373 82.093 15.81 82.434 16.335C82.766 16.843 82.869 17.431 82.909 18.066L82.958 18.929V24.983L83.006 25.849C83.106 27.271 84.274 28.317 85.888 28.399L86.86 28.442V18.066C86.86 16.231 86.038 14.472 84.575 13.174C83.111 11.877 81.126 11.147 79.056 11.147C77.948 11.146 76.853 11.354 75.843 11.758C74.833 12.162 73.932 12.753 73.201 13.49C72.469 12.753 71.568 12.163 70.558 11.759C69.548 11.354 68.453 11.145 67.345 11.146C65.724 11.146 64.22 11.582 62.974 12.334C62.214 11.582 60.513 11.146 59.537 11.146V28.442L60.513 28.399C62.146 28.304 63.327 27.286 63.39 25.849L63.443 24.983V18.931L63.491 18.066C63.532 17.413 63.634 16.839 63.967 16.328C64.311 15.804 64.804 15.369 65.397 15.067C65.989 14.764 66.661 14.605 67.345 14.605C68.03 14.605 68.702 14.764 69.295 15.067C69.888 15.371 70.38 15.807 70.723 16.332ZM3.918 28.4L4.89401 28.442H19.53L19.482 27.579C19.35 26.157 18.214 25.118 16.604 25.026L15.628 24.983H6.84698L18.554 14.604L18.506 13.742C18.43 12.305 17.246 11.267 15.628 11.188L14.651 11.149L0.0150146 11.146L0.0639954 12.011C0.191995 13.419 1.34401 14.48 2.94101 14.562L3.918 14.605H12.699L0.992004 24.984L1.04001 25.849C1.13601 27.275 2.297 28.307 3.918 28.399V28.4ZM55.706 13.677C56.612 14.48 57.331 15.434 57.822 16.483C58.312 17.532 58.565 18.657 58.565 19.793C58.565 20.929 58.312 22.053 57.822 23.102C57.331 24.152 56.612 25.105 55.706 25.908C53.875 27.53 51.393 28.44 48.805 28.44C46.216 28.44 43.734 27.53 41.903 25.908C38.093 22.531 38.093 17.054 41.903 13.677C42.808 12.875 43.883 12.238 45.066 11.803C46.25 11.369 47.518 11.145 48.798 11.145C50.081 11.144 51.351 11.367 52.537 11.802C53.722 12.237 54.799 12.873 55.706 13.677ZM52.945 16.126C54.042 17.1 54.659 18.42 54.659 19.796C54.659 21.172 54.042 22.492 52.945 23.465C51.846 24.438 50.357 24.985 48.805 24.985C47.252 24.985 45.763 24.438 44.664 23.465C43.567 22.492 42.95 21.172 42.95 19.796C42.95 18.42 43.567 17.1 44.664 16.126C45.763 15.154 47.252 14.607 48.805 14.607C50.357 14.607 51.846 15.154 52.945 16.126ZM28.319 11.145C29.6 11.145 30.868 11.369 32.051 11.804C33.234 12.238 34.309 12.875 35.215 13.678C39.026 17.054 39.026 22.532 35.215 25.908C33.384 27.53 30.901 28.44 28.313 28.44C25.725 28.44 23.242 27.53 21.412 25.908C17.601 22.531 17.601 17.054 21.412 13.677C22.317 12.875 23.392 12.238 24.575 11.803C25.758 11.369 27.026 11.145 28.307 11.145H28.319ZM32.453 16.125C33.551 17.098 34.168 18.418 34.168 19.795C34.168 21.171 33.551 22.491 32.453 23.465C31.355 24.437 29.866 24.984 28.313 24.984C26.76 24.984 25.271 24.437 24.173 23.465C23.075 22.491 22.459 21.171 22.459 19.795C22.459 18.419 23.075 17.099 24.173 16.126C25.271 15.153 26.76 14.606 28.313 14.606C29.866 14.606 31.355 15.152 32.453 16.125Z" fill="#575C62"/>
</g>
</svg>
