<svg width="41" height="42" viewBox="0 0 41 42" fill="none" xmlns="http://www.w3.org/2000/svg">
<path d="M20.5 41.47C31.8218 41.47 41 32.2918 41 20.97C41 9.64813 31.8218 0.469971 20.5 0.469971C9.17816 0.469971 0 9.64813 0 20.97C0 32.2918 9.17816 41.47 20.5 41.47Z" fill="white"/>
<path d="M11.25 25.1699C10.5326 25.5899 10.2868 26.4999 10.701 27.2199C11.1152 27.9399 12.0326 28.18 12.75 27.77L11.25 25.1699ZM30.769 16.8601C30.984 16.0601 30.509 15.24 29.7088 15.02L16.6688 11.53C15.8686 11.31 15.0461 11.7901 14.8317 12.5901C14.6173 13.3901 15.0921 14.2099 15.8923 14.4299L27.4834 17.53L24.3776 29.1201C24.1632 29.9201 24.6381 30.7499 25.4383 30.9599C26.2385 31.1699 27.061 30.6999 27.2754 29.8999L30.769 16.8601ZM12.75 27.77L30.071 17.77L28.5706 15.1699L11.25 25.1699L12.75 27.77Z" fill="black"/>
</svg>
