<svg width="41" height="41" viewBox="0 0 41 41" fill="none" xmlns="http://www.w3.org/2000/svg">
<path d="M20.5 41C31.8218 41 41 31.8218 41 20.5C41 9.17816 31.8218 0 20.5 0C9.17816 0 0 9.17816 0 20.5C0 31.8218 9.17816 41 20.5 41Z" fill="black"/>
<path d="M11.25 24.6999C10.5326 25.1199 10.2868 26.03 10.701 26.75C11.1152 27.47 12.0326 27.71 12.75 27.3L11.25 24.6999ZM30.769 16.39C30.984 15.59 30.509 14.77 29.7088 14.55L16.6688 11.06C15.8686 10.84 15.0461 11.32 14.8317 12.12C14.6173 12.92 15.0921 13.7399 15.8923 13.9499L27.4834 17.06L24.3776 28.65C24.1632 29.45 24.6381 30.27 25.4383 30.49C26.2385 30.7 27.061 30.23 27.2754 29.43L30.769 16.39ZM12.75 27.3L30.071 17.3L28.5706 14.6999L11.25 24.6999L12.75 27.3Z" fill="#B9FF66"/>
</svg>
