<svg width="34" height="35" viewBox="0 0 34 35" fill="none" xmlns="http://www.w3.org/2000/svg">
<path d="M17 34.8198C26.3888 34.8198 34 27.2087 34 17.8198C34 8.43098 26.3888 0.819824 17 0.819824C7.61116 0.819824 0 8.43098 0 17.8198C0 27.2087 7.61116 34.8198 17 34.8198Z" fill="black"/>
<path d="M9.31799 25.8198H12.813V14.5098H9.31799V25.8198Z" fill="#B9FF66"/>
<path d="M9 10.8999C9 12.0099 9.9 12.9102 11.065 12.9102C12.178 12.9102 13.078 12.0099 13.078 10.8999C13.078 9.7799 12.178 8.81982 11.065 8.81982C9.9 8.81982 9 9.7799 9 10.8999Z" fill="#B9FF66"/>
<path d="M22.452 25.8198H26V19.6099C26 16.5799 25.312 14.1899 21.763 14.1899C20.069 14.1899 18.903 15.1498 18.427 16.0498H18.374V14.5098H15.037V25.8198H18.533V20.25C18.533 18.76 18.798 17.3198 20.651 17.3198C22.452 17.3198 22.452 19.0198 22.452 20.2998V25.8198Z" fill="#B9FF66"/>
</svg>
